<svg width="105" height="99" viewBox="0 0 105 99" fill="none" xmlns="http://www.w3.org/2000/svg">
<path fill-rule="evenodd" clip-rule="evenodd" d="M74.3211 97.9959C77.0304 97.5115 89.6293 94.9632 89.6143 94.7878C91.1513 94.4074 90.7616 92.056 89.2077 92.2403L89.2041 92.2279C85.9776 92.5428 82.7984 92.7321 79.644 92.8601C90.1288 81.8675 100.153 69.7231 103.362 54.5239C108.032 35.1739 97.1771 15.8278 78.3591 9.39546C72.0453 7.12862 65.3568 6.99326 59.0345 8.52413C50.4062 -1.4556 33.8463 -2.22256 21.4596 5.87469C15.2032 9.78533 10.175 15.2006 5.73263 20.8337C3.81165 23.2549 1.95693 25.8576 0.222116 28.4121C-0.646074 29.7097 1.3488 31.1787 2.32657 29.8894C9.19181 20.4298 17.2895 9.72738 28.9921 5.28997C36.1256 2.59764 45.2096 2.41872 52.048 6.5371C53.4627 7.37723 54.6965 8.36583 55.7652 9.47424C44.3392 13.3576 34.6111 22.6733 31.2822 34.4698C28.0824 44.5103 32.2123 59.4372 44.9686 58.7119C61.2491 57.162 65.7143 36.0497 64.6782 22.5936C64.306 18.488 63.1814 14.9574 61.4896 11.9965C65.0441 11.3417 68.6841 11.297 72.2392 11.9803C86.23 14.3922 98.2136 26.8458 99.7538 40.4231C101.176 51.5699 96.8849 62.7855 91.4629 71.1285C87.2701 77.7731 81.2094 84.2423 76.1164 89.3408C76.1586 86.2311 76.1377 83.1475 75.9943 80.1178C75.9735 78.7575 73.7625 78.2489 73.5368 79.7748C72.9443 84.6739 72.0086 89.6982 71.0293 94.7359C70.9683 94.9213 70.9332 95.1083 70.9213 95.2944C70.6882 96.7602 71.9943 98.1622 73.4492 98.1159C73.7361 98.1328 74.0301 98.0963 74.3211 97.9959ZM58.2745 12.7601C62.5599 19.8917 62.3166 29.839 60.1279 37.8899C58.8744 42.7424 56.9977 47.7093 53.3808 51.2536C47.8884 56.7771 38.3502 56.9141 35.2277 48.9011C33.1505 43.9731 33.671 38.0747 35.6006 33.1058C39.2641 23.4268 48.1951 15.6943 58.2745 12.7601Z" fill="#025599"/>
</svg>
