<svg width="299" height="194" viewBox="0 0 299 194" fill="none" xmlns="http://www.w3.org/2000/svg">
<path d="M0 12C0 5.37258 5.37258 0 12 0H287C293.627 0 299 5.37258 299 12V194H0V12Z" fill="#E6EEF5"/>
<path d="M207.732 67.1242C207.821 68.4159 207.821 69.7065 207.821 71.0097C207.821 110.711 177.596 156.5 122.331 156.5V156.477C106.004 156.5 90.0155 151.823 76.2744 143.006C78.6485 143.292 81.034 143.435 83.4253 143.441C96.9572 143.452 110.1 138.913 120.742 130.554C114.472 130.436 108.395 128.361 103.362 124.62C98.3296 120.879 94.5916 115.658 92.6711 109.689C97.1756 110.558 101.816 110.378 106.237 109.17C92.2192 106.339 82.1347 94.023 82.1347 79.72V79.339C86.3135 81.667 90.9904 82.9568 95.7717 83.0998C82.5672 74.2762 78.4998 56.7125 86.4722 42.9816C94.0154 52.2637 103.427 59.8552 114.095 65.263C124.763 70.6708 136.45 73.7741 148.395 74.3712C147.205 69.244 147.381 63.8941 148.907 58.8564C150.432 53.8187 153.253 49.2698 157.089 45.6647C169.19 34.2884 188.223 34.872 199.598 46.9678C206.327 45.6392 212.78 43.1721 218.679 39.6728C216.436 46.63 211.742 52.5356 205.471 56.2914C211.427 55.5892 217.243 53.9943 222.725 51.5604C218.692 57.5988 213.615 62.8693 207.732 67.1242Z" fill="#1D9BF0"/>
</svg>
